<svg id="visual" viewBox="0 0 900 600" width="900" height="600" xmlns="http://www.w3.org/2000/svg" xmlns:xlink="http://www.w3.org/1999/xlink" version="1.1"><path d="M0 389L13.7 395.8C27.3 402.7 54.7 416.3 82 422.5C109.3 428.7 136.7 427.3 163.8 427.3C191 427.3 218 428.7 245.2 426.3C272.3 424 299.7 418 327 405.8C354.3 393.7 381.7 375.3 409 379.8C436.3 384.3 463.7 411.7 491 424.7C518.3 437.7 545.7 436.3 573 422.8C600.3 409.3 627.7 383.7 654.8 381.3C682 379 709 400 736.2 413.7C763.3 427.3 790.7 433.7 818 433.2C845.3 432.7 872.7 425.3 886.3 421.7L900 418L900 601L886.3 601C872.7 601 845.3 601 818 601C790.7 601 763.3 601 736.2 601C709 601 682 601 654.8 601C627.7 601 600.3 601 573 601C545.7 601 518.3 601 491 601C463.7 601 436.3 601 409 601C381.7 601 354.3 601 327 601C299.7 601 272.3 601 245.2 601C218 601 191 601 163.8 601C136.7 601 109.3 601 82 601C54.7 601 27.3 601 13.7 601L0 601Z" fill="#eeeeee"></path><path d="M0 471L13.7 466.5C27.3 462 54.7 453 82 445C109.3 437 136.7 430 163.8 436.5C191 443 218 463 245.2 461.3C272.3 459.7 299.7 436.3 327 435.8C354.3 435.3 381.7 457.7 409 469.8C436.3 482 463.7 484 491 484.5C518.3 485 545.7 484 573 483C600.3 482 627.7 481 654.8 472C682 463 709 446 736.2 448C763.3 450 790.7 471 818 473.5C845.3 476 872.7 460 886.3 452L900 444L900 601L886.3 601C872.7 601 845.3 601 818 601C790.7 601 763.3 601 736.2 601C709 601 682 601 654.8 601C627.7 601 600.3 601 573 601C545.7 601 518.3 601 491 601C463.7 601 436.3 601 409 601C381.7 601 354.3 601 327 601C299.7 601 272.3 601 245.2 601C218 601 191 601 163.8 601C136.7 601 109.3 601 82 601C54.7 601 27.3 601 13.7 601L0 601Z" fill="#bdbdbd"></path><path d="M0 471L13.7 474.8C27.3 478.7 54.7 486.3 82 493.3C109.3 500.3 136.7 506.7 163.8 507.2C191 507.7 218 502.3 245.2 496.2C272.3 490 299.7 483 327 476.8C354.3 470.7 381.7 465.3 409 465.7C436.3 466 463.7 472 491 480C518.3 488 545.7 498 573 503.2C600.3 508.3 627.7 508.7 654.8 507.2C682 505.7 709 502.3 736.2 496C763.3 489.7 790.7 480.3 818 484.7C845.3 489 872.7 507 886.3 516L900 525L900 601L886.3 601C872.7 601 845.3 601 818 601C790.7 601 763.3 601 736.2 601C709 601 682 601 654.8 601C627.7 601 600.3 601 573 601C545.7 601 518.3 601 491 601C463.7 601 436.3 601 409 601C381.7 601 354.3 601 327 601C299.7 601 272.3 601 245.2 601C218 601 191 601 163.8 601C136.7 601 109.3 601 82 601C54.7 601 27.3 601 13.7 601L0 601Z" fill="#8f8e8e"></path><path d="M0 548L13.7 545C27.3 542 54.7 536 82 538.5C109.3 541 136.7 552 163.8 549C191 546 218 529 245.2 521.2C272.3 513.3 299.7 514.7 327 514.3C354.3 514 381.7 512 409 517C436.3 522 463.7 534 491 543C518.3 552 545.7 558 573 561.3C600.3 564.7 627.7 565.3 654.8 561.3C682 557.3 709 548.7 736.2 546.7C763.3 544.7 790.7 549.3 818 544.8C845.3 540.3 872.7 526.7 886.3 519.8L900 513L900 601L886.3 601C872.7 601 845.3 601 818 601C790.7 601 763.3 601 736.2 601C709 601 682 601 654.8 601C627.7 601 600.3 601 573 601C545.7 601 518.3 601 491 601C463.7 601 436.3 601 409 601C381.7 601 354.3 601 327 601C299.7 601 272.3 601 245.2 601C218 601 191 601 163.8 601C136.7 601 109.3 601 82 601C54.7 601 27.3 601 13.7 601L0 601Z" fill="#646262"></path></svg>